<svg xmlns="http://www.w3.org/2000/svg" viewBox="0 0 640 150" role="img" aria-labelledby="title desc">
  <title id="title">Sevanamithram Public Service Center</title>
  <desc id="desc">A green and blue symbol of people joined around a service star.</desc>
  <defs>
    <linearGradient id="green" x1="0" y1="0" x2="1" y2="1"><stop stop-color="#54c45e"/><stop offset="1" stop-color="#18a84f"/></linearGradient>
    <linearGradient id="blue" x1="0" y1="0" x2="1" y2="1"><stop stop-color="#1677c8"/><stop offset="1" stop-color="#2750b9"/></linearGradient>
  </defs>
  <g transform="translate(8 7)">
    <circle cx="68" cy="68" r="59" fill="#f2fbf5"/>
    <path d="M68 13c12 0 22 10 22 22S80 57 68 57 46 47 46 35 56 13 68 13Z" fill="url(#green)"/>
    <path d="M18 55c6-10 19-13 29-7s13 19 7 29-19 13-29 7-13-19-7-29Z" fill="url(#blue)"/>
    <path d="M118 55c-6-10-19-13-29-7s-13 19-7 29 19 13 29 7 13-19 7-29Z" fill="url(#blue)"/>
    <path d="M27 104c7-15 22-26 41-26s34 11 41 26c-11 13-25 20-41 20s-30-7-41-20Z" fill="url(#green)"/>
    <path d="m68 58 5 10 11 2-8 8 2 11-10-5-10 5 2-11-8-8 11-2 5-10Z" fill="#fff"/>
  </g>
  <text x="148" y="70" fill="#1f2937" font-family="Poppins,Arial,sans-serif" font-size="45" font-weight="800" letter-spacing="1">SEVANA<tspan fill="#18a84f">MITHRAM</tspan></text>
  <text x="151" y="105" fill="#1677c8" font-family="Inter,Arial,sans-serif" font-size="20" font-weight="700" letter-spacing="5">PUBLIC SERVICE CENTER</text>
  <text x="151" y="130" fill="#6b7280" font-family="Inter,Arial,sans-serif" font-size="14" font-weight="500">Built on Trust. Driven by Care.</text>
</svg>
